# xmcd
#
# Track frame offsets: 
#        150
#        14204
#        28100
#        40078
#        56476
#        69776
#        83069
#        97036
#        107958
#        122736
#        135782
#        151323
#        162389
#        177068
#        189206
#
# Disc length: 2687 seconds
#
# Revision: 0
# Processed by: cddbd v1.5.2PL0 Copyright (c) Steve Scherf et al.
# Submitted via: ExactAudioCopy v0.95b4
#
DISCID=ba0a7d0f
DTITLE=Clive Bruce - Sings the hits of Don Williams
DYEAR=1900
DGENRE=Country
TTITLE0=Amanda
TTITLE1=I recall a gypsy woman
TTITLE2=Ghost story
TTITLE3=I believe in you
TTITLE4=Lay down beside me
TTITLE5=Mistakes
TTITLE6=Only love
TTITLE7=Some broken hearts never mend
TTITLE8=Standing in a sea of teardrops
TTITLE9=Stay young
TTITLE10=Till the rivers all run dry
TTITLE11=Time on my hands
TTITLE12=Tulsa time
TTITLE13=Yellow moon
TTITLE14=You're my best friend
EXTD=
EXTT0=
EXTT1=
EXTT2=
EXTT3=
EXTT4=
EXTT5=
EXTT6=
EXTT7=
EXTT8=
EXTT9=
EXTT10=
EXTT11=
EXTT12=
EXTT13=
EXTT14=
PLAYORDER=
